<?xml version="1.0" encoding="UTF-8"?>
<svg id="Camada_1" data-name="Camada 1" xmlns="http://www.w3.org/2000/svg" xmlns:xlink="http://www.w3.org/1999/xlink" viewBox="0 0 146.58 29.55">
  <defs>
    <style>
      .cls-1, .cls-2, .cls-3, .cls-4, .cls-5, .cls-6, .cls-7, .cls-8, .cls-9, .cls-10, .cls-11, .cls-12, .cls-13, .cls-14, .cls-15, .cls-16 {
        fill: none;
      }

      .cls-1, .cls-17 {
        stroke-width: 0px;
      }

      .cls-2 {
        stroke-width: .4px;
      }

      .cls-2, .cls-3, .cls-4, .cls-5, .cls-6, .cls-7, .cls-8, .cls-9, .cls-10, .cls-11, .cls-12, .cls-13, .cls-14, .cls-15, .cls-16 {
        stroke: #ef4f00;
        stroke-miterlimit: 10;
      }

      .cls-3 {
        stroke-width: .8px;
      }

      .cls-4 {
        stroke-width: .73px;
      }

      .cls-5 {
        stroke-width: .93px;
      }

      .cls-6 {
        stroke-width: .47px;
      }

      .cls-7 {
        stroke-width: .27px;
      }

      .cls-8 {
        stroke-width: .13px;
      }

      .cls-9 {
        stroke-width: .53px;
      }

      .cls-10 {
        stroke-width: .2px;
      }

      .cls-11 {
        stroke-width: .07px;
      }

      .cls-13 {
        stroke-width: .6px;
      }

      .cls-14 {
        stroke-width: .87px;
      }

      .cls-17 {
        fill: url(#linear-gradient);
        opacity: .44;
      }

      .cls-15 {
        stroke-width: .67px;
      }

      .cls-16 {
        stroke-width: .33px;
      }
    </style>
    <linearGradient id="linear-gradient" x1="5.73" y1="14.77" x2="178.59" y2="14.77" gradientUnits="userSpaceOnUse">
      <stop offset=".05" stop-color="#ef4f00"/>
      <stop offset=".11" stop-color="#ef4f00" stop-opacity=".83"/>
      <stop offset=".19" stop-color="#ef4f00" stop-opacity=".64"/>
      <stop offset=".28" stop-color="#ef4f00" stop-opacity=".47"/>
      <stop offset=".37" stop-color="#ef4f00" stop-opacity=".32"/>
      <stop offset=".46" stop-color="#ef4f00" stop-opacity=".2"/>
      <stop offset=".57" stop-color="#ef4f00" stop-opacity=".11"/>
      <stop offset=".68" stop-color="#ef4f00" stop-opacity=".05"/>
      <stop offset=".81" stop-color="#ef4f00" stop-opacity=".01"/>
      <stop offset="1" stop-color="#ef4f00" stop-opacity="0"/>
    </linearGradient>
  </defs>
  <polygon class="cls-17" points="140.84 23.21 5.73 23.21 12.61 9.97 12.65 6.33 140.84 6.33 140.84 23.21"/>
  <g>
    <polyline class="cls-12" points="13.03 6.33 13.03 9.76 5.73 23.21"/>
    <polyline class="cls-5" points="20.87 6.33 20.87 9.76 13.57 23.21"/>
    <polyline class="cls-14" points="28.72 6.33 28.72 9.76 21.42 23.21"/>
    <polyline class="cls-3" points="36.56 6.33 36.56 9.76 29.26 23.21"/>
    <polyline class="cls-4" points="44.4 6.33 44.4 9.76 37.1 23.21"/>
    <polyline class="cls-15" points="52.24 6.33 52.24 9.76 44.94 23.21"/>
    <polyline class="cls-13" points="60.08 6.33 60.08 9.76 52.78 23.21"/>
    <polyline class="cls-9" points="67.92 6.33 67.92 9.76 60.62 23.21"/>
    <polyline class="cls-6" points="75.76 6.33 75.76 9.76 68.47 23.21"/>
    <polyline class="cls-2" points="83.61 6.33 83.61 9.76 76.31 23.21"/>
    <polyline class="cls-16" points="91.45 6.33 91.45 9.76 84.15 23.21"/>
    <polyline class="cls-7" points="99.29 6.33 99.29 9.76 91.99 23.21"/>
    <polyline class="cls-10" points="107.13 6.33 107.13 9.76 99.83 23.21"/>
    <polyline class="cls-8" points="114.97 6.33 114.97 9.76 107.67 23.21"/>
    <polyline class="cls-11" points="122.81 6.33 122.81 9.76 115.52 23.21"/>
    <polyline class="cls-1" points="130.66 6.33 130.66 9.76 123.36 23.21"/>
  </g>
</svg>